<svg width="64" height="16" viewBox="0 0 64 16" fill="none" xmlns="http://www.w3.org/2000/svg">
<path d="M4.42199 15.8619C3.08733 15.8619 2.01666 15.3706 1.20999 14.3879C0.403328 13.3906 -5.45382e-06 12.0046 -5.45382e-06 10.2299C-5.45382e-06 9.05657 0.212661 8.0519 0.637995 7.2159C1.07799 6.36523 1.64999 5.71257 2.35399 5.2579C3.05799 4.80323 3.80599 4.5759 4.59799 4.5759C5.22866 4.5759 5.76399 4.6859 6.20399 4.9059C6.644 5.11123 7.07666 5.40457 7.50199 5.7859L7.414 4.0039V-0.000100732H9.63599V15.5979H7.80999L7.63399 14.3879H7.568C7.17199 14.7839 6.70266 15.1286 6.15999 15.4219C5.61733 15.7152 5.03799 15.8619 4.42199 15.8619ZM4.94999 14.0139C5.40466 14.0139 5.82999 13.9039 6.22599 13.6839C6.63666 13.4639 7.03266 13.1339 7.414 12.6939V7.4139C7.01799 7.04723 6.62199 6.79057 6.22599 6.6439C5.84466 6.49723 5.44866 6.4239 5.03799 6.4239C4.53933 6.4239 4.07733 6.5779 3.65199 6.8859C3.24133 7.17923 2.91133 7.6119 2.66199 8.1839C2.41266 8.7559 2.28799 9.43057 2.28799 10.2079C2.28799 11.4252 2.52266 12.3639 2.99199 13.0239C3.46133 13.6839 4.11399 14.0139 4.94999 14.0139ZM17.3265 15.8619C16.4465 15.8619 15.6179 15.6419 14.8405 15.2019C14.0779 14.7472 13.4545 14.1019 12.9705 13.2659C12.5012 12.4299 12.2665 11.4179 12.2665 10.2299C12.2665 9.02723 12.5012 8.0079 12.9705 7.1719C13.4545 6.32123 14.0779 5.6759 14.8405 5.2359C15.6179 4.7959 16.4465 4.5759 17.3265 4.5759C18.2212 4.5759 19.0499 4.7959 19.8125 5.2359C20.5752 5.6759 21.1912 6.32123 21.6605 7.1719C22.1445 8.0079 22.3865 9.02723 22.3865 10.2299C22.3865 11.4179 22.1445 12.4299 21.6605 13.2659C21.1912 14.1019 20.5752 14.7472 19.8125 15.2019C19.0499 15.6419 18.2212 15.8619 17.3265 15.8619ZM17.3265 14.0359C17.8985 14.0359 18.3899 13.8819 18.8005 13.5739C19.2259 13.2512 19.5485 12.8039 19.7685 12.2319C19.9885 11.6599 20.0985 10.9926 20.0985 10.2299C20.0985 9.46723 19.9885 8.7999 19.7685 8.2279C19.5485 7.64123 19.2259 7.1939 18.8005 6.8859C18.3899 6.56323 17.8985 6.4019 17.3265 6.4019C16.7692 6.4019 16.2779 6.56323 15.8525 6.8859C15.4419 7.1939 15.1192 7.64123 14.8845 8.2279C14.6645 8.7999 14.5545 9.46723 14.5545 10.2299C14.5545 10.9926 14.6645 11.6599 14.8845 12.2319C15.1192 12.8039 15.4419 13.2512 15.8525 13.5739C16.2779 13.8819 16.7692 14.0359 17.3265 14.0359ZM29.3363 15.8619C28.4563 15.8619 27.6276 15.6419 26.8503 15.2019C26.0876 14.7472 25.4643 14.1019 24.9803 13.2659C24.511 12.4299 24.2763 11.4179 24.2763 10.2299C24.2763 9.02723 24.511 8.0079 24.9803 7.1719C25.4643 6.32123 26.0876 5.6759 26.8503 5.2359C27.6276 4.7959 28.4563 4.5759 29.3363 4.5759C30.231 4.5759 31.0596 4.7959 31.8223 5.2359C32.585 5.6759 33.201 6.32123 33.6703 7.1719C34.1543 8.0079 34.3963 9.02723 34.3963 10.2299C34.3963 11.4179 34.1543 12.4299 33.6703 13.2659C33.201 14.1019 32.585 14.7472 31.8223 15.2019C31.0596 15.6419 30.231 15.8619 29.3363 15.8619ZM29.3363 14.0359C29.9083 14.0359 30.3996 13.8819 30.8103 13.5739C31.2356 13.2512 31.5583 12.8039 31.7783 12.2319C31.9983 11.6599 32.1083 10.9926 32.1083 10.2299C32.1083 9.46723 31.9983 8.7999 31.7783 8.2279C31.5583 7.64123 31.2356 7.1939 30.8103 6.8859C30.3996 6.56323 29.9083 6.4019 29.3363 6.4019C28.779 6.4019 28.2876 6.56323 27.8623 6.8859C27.4516 7.1939 27.129 7.64123 26.8943 8.2279C26.6743 8.7999 26.5643 9.46723 26.5643 10.2299C26.5643 10.9926 26.6743 11.6599 26.8943 12.2319C27.129 12.8039 27.4516 13.2512 27.8623 13.5739C28.2876 13.8819 28.779 14.0359 29.3363 14.0359ZM42.0501 15.8619C41.5661 15.8619 41.0601 15.7446 40.5321 15.5099C40.0187 15.2606 39.5274 14.9159 39.0581 14.4759H38.9921L38.7941 15.5979H37.0341V-0.000100732H39.2561V4.1359L39.1901 5.9839C39.6594 5.57323 40.1727 5.2359 40.7301 4.9719C41.2874 4.7079 41.8521 4.5759 42.4241 4.5759C43.3334 4.5759 44.1034 4.80323 44.7341 5.2579C45.3647 5.6979 45.8414 6.32857 46.1641 7.1499C46.5014 7.97123 46.6701 8.9319 46.6701 10.0319C46.6701 11.2639 46.4501 12.3126 46.0101 13.1779C45.5847 14.0432 45.0201 14.7106 44.3161 15.1799C43.6121 15.6346 42.8567 15.8619 42.0501 15.8619ZM41.6101 14.0139C42.1381 14.0139 42.6074 13.8599 43.0181 13.5519C43.4434 13.2439 43.7734 12.7966 44.0081 12.2099C44.2574 11.6232 44.3821 10.9119 44.3821 10.0759C44.3821 9.3279 44.2941 8.68257 44.1181 8.1399C43.9421 7.58257 43.6634 7.15723 43.2821 6.8639C42.9154 6.57057 42.4314 6.4239 41.8301 6.4239C41.4194 6.4239 41.0014 6.5339 40.5761 6.7539C40.1507 6.95923 39.7107 7.28923 39.2561 7.7439V13.0239C39.6814 13.3759 40.0994 13.6326 40.5101 13.7939C40.9207 13.9406 41.2874 14.0139 41.6101 14.0139ZM51.5451 15.8619C51.0171 15.8619 50.5845 15.7519 50.2471 15.5319C49.9245 15.3119 49.6898 14.9966 49.5431 14.5859C49.3965 14.1606 49.3231 13.6619 49.3231 13.0899V-0.000100732H51.5451V13.2219C51.5451 13.5152 51.5965 13.7279 51.6991 13.8599C51.8165 13.9772 51.9411 14.0359 52.0731 14.0359C52.1318 14.0359 52.1905 14.0359 52.2491 14.0359C52.3078 14.0212 52.3811 14.0066 52.4691 13.9919L52.7551 15.6639C52.6231 15.7079 52.4545 15.7519 52.2491 15.7959C52.0585 15.8399 51.8238 15.8619 51.5451 15.8619ZM59.6119 15.8619C58.6439 15.8619 57.7639 15.6419 56.9719 15.2019C56.1799 14.7472 55.5492 14.1019 55.0799 13.2659C54.6106 12.4152 54.3759 11.4032 54.3759 10.2299C54.3759 9.05657 54.6106 8.0519 55.0799 7.2159C55.5492 6.36523 56.1579 5.71257 56.9059 5.2579C57.6539 4.80323 58.4459 4.5759 59.2819 4.5759C60.2353 4.5759 61.0346 4.78857 61.6799 5.2139C62.3399 5.63923 62.8313 6.23323 63.1539 6.9959C63.4913 7.75857 63.6599 8.6459 63.6599 9.6579C63.6599 9.86323 63.6526 10.0759 63.6379 10.2959C63.6233 10.5012 63.6013 10.6699 63.5719 10.8019H56.1139L56.0919 9.2619H61.7239C61.7239 8.32323 61.5186 7.59723 61.1079 7.0839C60.7119 6.57057 60.1179 6.3139 59.3259 6.3139C58.8566 6.3139 58.4019 6.4459 57.9619 6.7099C57.5219 6.9739 57.1552 7.39923 56.8619 7.9859C56.5832 8.5579 56.4439 9.3059 56.4439 10.2299C56.4439 11.1246 56.6052 11.8579 56.9279 12.4299C57.2506 13.0019 57.6759 13.4272 58.2039 13.7059C58.7319 13.9846 59.2966 14.1239 59.8979 14.1239C60.3966 14.1239 60.8512 14.0506 61.2619 13.9039C61.6726 13.7572 62.0759 13.5592 62.4719 13.3099L63.2419 14.7179C62.7579 15.0406 62.2079 15.3119 61.5919 15.5319C60.9759 15.7519 60.3159 15.8619 59.6119 15.8619Z" fill="white"/>
</svg>
