<svg width="101" height="103" viewBox="0 0 101 103" fill="none" xmlns="http://www.w3.org/2000/svg">
<g filter="url(#filter0_d_1_783)">
<circle cx="43.5" cy="45.5" r="31.5" fill="#452A7A"/>
</g>
<path d="M55.4348 39.9416C57.644 39.9416 59.4348 41.7325 59.4348 43.9416V59.9533L54.4934 56.2473H42.6819C40.4731 56.247 38.6821 54.456 38.6819 52.2473V43.9416C38.6819 41.7326 40.473 39.9418 42.6819 39.9416H55.4348ZM42.6819 41.9416C41.5775 41.9418 40.6819 42.8372 40.6819 43.9416V52.2473C40.6821 53.3515 41.5777 54.247 42.6819 54.2473H55.1604L55.6936 54.6476L57.4348 55.9533V43.9416C57.4348 42.837 56.5394 41.9416 55.4348 41.9416H42.6819ZM44.3176 31.0471C46.5268 31.0471 48.3176 32.8379 48.3176 35.0471V36.9767H46.3176V35.0471C46.3176 33.9425 45.4222 33.0471 44.3176 33.0471H31.5647C30.4601 33.0471 29.5647 33.9425 29.5647 35.0471V47.0588L31.3059 45.7531L31.8391 45.3527H35.718V47.3527H32.5061L27.5647 51.0588V35.0471C27.5647 32.8379 29.3556 31.0471 31.5647 31.0471H44.3176ZM52.7639 48.8361C53.1733 48.8361 53.5051 49.168 53.5051 49.5773C53.5047 49.9863 53.173 50.3185 52.7639 50.3185H47.5764C47.1676 50.3183 46.8357 49.9861 46.8352 49.5773C46.8352 49.1681 47.1673 48.8364 47.5764 48.8361H52.7639ZM52.7639 45.1301C53.1733 45.1301 53.5051 45.4619 53.5051 45.8713C53.5048 46.2803 53.173 46.6125 52.7639 46.6125H45.3528C44.9439 46.6122 44.6119 46.2802 44.6116 45.8713C44.6116 45.4621 44.9437 45.1303 45.3528 45.1301H52.7639Z" fill="white"/>
<defs>
<filter id="filter0_d_1_783" x="-2" y="0" width="103" height="103" filterUnits="userSpaceOnUse" color-interpolation-filters="sRGB">
<feFlood flood-opacity="0" result="BackgroundImageFix"/>
<feColorMatrix in="SourceAlpha" type="matrix" values="0 0 0 0 0 0 0 0 0 0 0 0 0 0 0 0 0 0 127 0" result="hardAlpha"/>
<feOffset dx="6" dy="6"/>
<feGaussianBlur stdDeviation="10"/>
<feColorMatrix type="matrix" values="0 0 0 0 0 0 0 0 0 0 0 0 0 0 0 0 0 0 0.4 0"/>
<feBlend mode="normal" in2="BackgroundImageFix" result="effect1_dropShadow_1_783"/>
<feBlend mode="normal" in="SourceGraphic" in2="effect1_dropShadow_1_783" result="shape"/>
</filter>
</defs>
</svg>
